<svg width="100" height="51" xmlns="http://www.w3.org/2000/svg">
 <title>design_process</title>

 <g>
  <title>background</title>
  <rect fill="none" id="canvas_background" height="53" width="102" y="-1" x="-1"/>
 </g>
 <g>
  <title>Layer 1</title>
  <g stroke="null" id="svg_1">
   <path stroke="null" id="svg_2" d="m79.926622,0l-47.11851,0c-1.061228,0 -1.91021,0.848982 -1.91021,1.91021l0,0l0,4.457156l-4.457156,0c-1.061228,0 -1.91021,0.848982 -1.91021,1.91021l0,0l0,4.457156l-4.457156,0c-1.061228,0 -1.91021,0.848982 -1.91021,1.91021c0,0 0,0 0,0l0,34.100784c0,1.061228 0.848982,1.91021 1.91021,1.91021c0,0 0,0 0,0l47.11851,0c1.061228,0 1.91021,-0.848982 1.91021,-1.91021c0,0 0,0 0,0l0,-4.032665l4.457156,0c1.061228,0 1.91021,-0.848982 1.91021,-1.91021c0,0 0,0 0,0l0,-4.457156l4.457156,0c1.061228,0 1.91021,-0.848982 1.91021,-1.91021l0,0l0,-34.525275c0,-1.061228 -0.848982,-1.91021 -1.91021,-1.91021l0,0zm-7.216348,38.345694l0,3.608174l-3.608174,0l0,-27.308926c0,-1.061228 -0.848982,-1.91021 -1.91021,-1.91021l0,0l-39.902162,0l0,-3.608174l45.420546,0l0,29.219136zm-6.367366,6.367366l0,3.183683l-45.420546,0l0,-32.402819l45.420546,0l0,29.219136l0,0zm12.734732,-9.126558l-3.608174,0l0,-27.308926c0,-1.061228 -0.848982,-1.91021 -1.91021,-1.91021l0,0l-39.902162,0l0,-3.608174l45.420546,0l0,32.82731z"/>
   <path stroke="null" id="svg_3" d="m40.024461,42.590605l-14.149703,0c-0.778234,0 -1.344222,0.636737 -1.344222,1.344222s0.636737,1.344222 1.344222,1.344222l14.149703,0c0.778234,0 1.344222,-0.636737 1.344222,-1.344222s-0.565988,-1.344222 -1.344222,-1.344222z"/>
   <path stroke="null" id="svg_4" d="m25.874758,40.255904l7.640839,0c0.778234,0 1.344222,-0.636737 1.344222,-1.344222l0,0c0,-0.778234 -0.636737,-1.344222 -1.344222,-1.344222l-7.640839,0c-0.778234,0 -1.344222,0.636737 -1.344222,1.344222s0.636737,1.344222 1.344222,1.344222l0,0l0,0z"/>
   <path stroke="null" id="svg_5" d="m40.448952,19.102099l-14.574194,0c-0.778234,0 -1.344222,0.636737 -1.344222,1.344222c0,0 0,0 0,0l0,13.371469c0,0.778234 0.636737,1.344222 1.344222,1.344222l14.574194,0c0.778234,0 1.344222,-0.636737 1.344222,-1.344222l0,-13.300721c0,-0.778234 -0.565988,-1.41497 -1.344222,-1.41497c0,0 0,0 0,0zm-1.344222,13.300721l-11.815002,0l0,-10.612277l11.815002,0l0,10.612277z"/>
   <path stroke="null" id="svg_6" d="m61.390512,19.102099l-14.574194,0c-0.778234,0 -1.344222,0.636737 -1.344222,1.344222l0,13.371469c0,0.778234 0.636737,1.344222 1.344222,1.344222l14.574194,0c0.778234,0 1.344222,-0.636737 1.344222,-1.344222l0,-13.300721c0,-0.778234 -0.636737,-1.41497 -1.344222,-1.41497c0,0 0,0 0,0zm-1.41497,13.300721l-11.815002,0l0,-10.612277l11.815002,0l0,10.612277z"/>
   <path stroke="null" id="svg_7" d="m60.966021,42.590605l-14.149703,0c-0.49524,0 -0.990479,0.282994 -1.202725,0.707485c-0.353743,0.707485 0,1.556467 0.707485,1.91021c0.141497,0.070749 0.353743,0.141497 0.49524,0.141497l14.149703,0c0.778234,0 1.344222,-0.636737 1.344222,-1.344222s-0.565988,-1.485719 -1.344222,-1.41497l0,0z"/>
   <path stroke="null" id="svg_8" d="m46.816318,40.255904l7.640839,0c0.778234,0 1.344222,-0.636737 1.344222,-1.344222l0,0c0,-0.778234 -0.636737,-1.344222 -1.344222,-1.344222l-7.640839,0c-0.565988,0 -1.061228,0.353743 -1.273473,0.848982c-0.070749,0.141497 -0.141497,0.353743 -0.141497,0.565988c0.070749,0.636737 0.636737,1.273473 1.41497,1.273473l0,0z"/>
  </g>
 </g>
</svg>