<svg width="333" height="270" xmlns="http://www.w3.org/2000/svg">
 <title>Advertising - Promotion - Marketing - Business_11</title>

 <g>
  <title>background</title>
  <rect fill="none" id="canvas_background" height="272" width="335" y="-1" x="-1"/>
 </g>
 <g>
  <title>Layer 1</title>
  <path stroke="null" id="svg_1" d="m136.227638,103.214022l4.036316,0l0,14.799824c0,5.718114 4.372675,10.090789 10.090789,10.090789l18.836139,0c5.718114,0 10.090789,-4.372675 10.090789,-10.090789l0,-5.381754l28.590569,8.072631c2.018158,0.672719 4.372675,0 6.054473,-1.009079c1.681798,-1.345439 2.690877,-3.363596 2.690877,-5.381754l0,-70.971882c0,-2.018158 -1.009079,-4.036316 -2.690877,-5.381754c-1.681798,-1.345439 -3.699956,-1.681798 -6.054473,-1.009079l-61.890172,17.490701l-9.754429,0c-13.454385,-0.33636 -24.890613,10.090789 -25.563332,23.545174c-0.33636,13.454385 10.090789,24.890613 23.545174,25.563332c0.672719,-0.33636 1.345439,-0.33636 2.018158,-0.33636zm29.599647,11.436227l-11.772587,0l0,-9.08171l11.772587,3.363596l0,5.718114zm-29.599647,-47.090348l10.763508,0c0.672719,0 1.345439,0 1.681798,-0.33636l54.153901,-15.136183l0,53.144822l-54.153901,-15.136183c-0.672719,-0.33636 -1.345439,-0.33636 -1.681798,-0.33636l-10.763508,0c-6.054473,0.33636 -11.436227,-4.372675 -11.772587,-10.427149s4.372675,-11.436227 10.427149,-11.772587c0.672719,0 1.009079,0 1.345439,0zm110.998678,-59.535655l-161.452623,0c-3.699956,0 -6.727193,3.027237 -6.727193,6.727193l0,240.497136c0,3.699956 3.027237,6.727193 6.727193,6.727193l161.452623,0c3.699956,0 6.727193,-3.027237 6.727193,-6.727193l0,-240.497136c0,-3.699956 -3.027237,-6.727193 -6.727193,-6.727193zm-6.727193,240.497136l-147.998237,0l0,-227.042751l147.998237,0l0,227.042751zm-26.236051,-100.907889c3.699956,0 6.727193,3.027237 6.727193,6.727193s-3.027237,6.727193 -6.727193,6.727193l-95.526135,0c-3.699956,0 -6.727193,-3.027237 -6.727193,-6.727193s3.027237,-6.727193 6.727193,-6.727193l95.526135,0zm6.727193,38.008638c0,3.699956 -3.027237,6.727193 -6.727193,6.727193l-95.526135,0c-3.699956,0 -6.727193,-3.027237 -6.727193,-6.727193s3.027237,-6.727193 6.727193,-6.727193l95.526135,0c3.699956,0 6.727193,3.027237 6.727193,6.727193z"/>
 </g>
</svg>