<svg width="99.99999999999999" height="55" xmlns="http://www.w3.org/2000/svg">

 <g>
  <title>background</title>
  <rect fill="none" id="canvas_background" height="57" width="102" y="-1" x="-1"/>
 </g>
 <g>
  <title>Layer 1</title>
  <g stroke="null" id="svg_1">
   <path stroke="null" id="svg_2" d="m50,49.632717c-0.22059,0 -0.44118,0 -0.551475,-0.110295l-5.294156,-3.198553l-21.7281,0c-0.66177,0 -1.102949,-0.44118 -1.102949,-1.102949l0,-44.11797c0,-0.66177 0.44118,-1.102949 1.102949,-1.102949l22.058985,0c3.639733,0 6.617696,2.977963 6.617696,6.617696l0,41.912072c0,0.44118 -0.22059,0.772064 -0.551475,0.992654c-0.22059,0.110295 -0.330885,0.110295 -0.551475,0.110295zm-26.470782,-5.514746l20.956036,0c0.22059,0 0.44118,0 0.551475,0.110295l3.860322,2.316193l0,-39.926763c0,-2.426488 -1.985309,-4.411797 -4.411797,-4.411797l-20.956036,0l0,41.912072z"/>
   <path stroke="null" id="svg_3" d="m50,54.044514c-0.22059,0 -0.44118,0 -0.551475,-0.110295l-5.294156,-3.198553l-26.139898,0c-0.66177,0 -1.102949,-0.44118 -1.102949,-1.102949l0,-44.11797c0,-0.66177 0.44118,-1.102949 1.102949,-1.102949l4.411797,0c0.66177,0 1.102949,0.44118 1.102949,1.102949l0,38.603224l20.956036,0c0.22059,0 0.44118,0 0.551475,0.110295l4.963272,2.977963l4.963272,-2.977963c0.110295,-0.110295 0.330885,-0.110295 0.551475,-0.110295l20.956036,0l0,-38.603224c0,-0.66177 0.44118,-1.102949 1.102949,-1.102949l4.411797,0c0.66177,0 1.102949,0.44118 1.102949,1.102949l0,44.11797c0,0.66177 -0.44118,1.102949 -1.102949,1.102949l-26.139898,0l-5.294156,3.198553c-0.110295,0.110295 -0.330885,0.110295 -0.551475,0.110295zm-30.882579,-5.514746l25.367833,0c0.22059,0 0.44118,0 0.551475,0.110295l4.963272,2.977963l4.963272,-2.977963c0.110295,-0.110295 0.330885,-0.110295 0.551475,-0.110295l25.367833,0l0,-41.912072l-2.205899,0l0,38.603224c0,0.66177 -0.44118,1.102949 -1.102949,1.102949l-21.7281,0l-5.294156,3.198553c-0.330885,0.22059 -0.772064,0.22059 -1.102949,0l-5.294156,-3.198553l-21.7281,0c-0.66177,0 -1.102949,-0.44118 -1.102949,-1.102949l0,-38.603224l-2.205899,0l0,41.912072z"/>
   <path stroke="null" id="svg_4" d="m50,49.632717c-0.22059,0 -0.330885,0 -0.551475,-0.110295c-0.330885,-0.22059 -0.551475,-0.551475 -0.551475,-0.992654l0,-41.912072c0,-3.639733 2.977963,-6.617696 6.617696,-6.617696l22.058985,0c0.66177,0 1.102949,0.44118 1.102949,1.102949l0,44.11797c0,0.66177 -0.44118,1.102949 -1.102949,1.102949l-21.7281,0l-5.294156,3.198553c-0.110295,0.110295 -0.330885,0.110295 -0.551475,0.110295zm5.514746,-47.426818c-2.426488,0 -4.411797,1.985309 -4.411797,4.411797l0,39.926763l3.860322,-2.316193c0.110295,-0.110295 0.330885,-0.110295 0.551475,-0.110295l20.956036,0l0,-41.912072l-20.956036,0z"/>
   <path stroke="null" id="svg_5" d="m45.588203,9.926543l-7.720645,0c-0.66177,0 -1.102949,-0.44118 -1.102949,-1.102949s0.44118,-1.102949 1.102949,-1.102949l7.720645,0c0.66177,0 1.102949,0.44118 1.102949,1.102949s-0.44118,1.102949 -1.102949,1.102949z"/>
   <path stroke="null" id="svg_6" d="m45.588203,14.33834l-7.720645,0c-0.66177,0 -1.102949,-0.44118 -1.102949,-1.102949s0.44118,-1.102949 1.102949,-1.102949l7.720645,0c0.66177,0 1.102949,0.44118 1.102949,1.102949s-0.44118,1.102949 -1.102949,1.102949z"/>
   <path stroke="null" id="svg_7" d="m29.043964,14.33834c-0.330885,0 -0.551475,-0.110295 -0.772064,-0.330885l-2.205899,-2.205899c-0.44118,-0.44118 -0.44118,-1.102949 0,-1.544129s1.102949,-0.44118 1.544129,0l2.205899,2.205899c0.44118,0.44118 0.44118,1.102949 0,1.544129c-0.22059,0.22059 -0.44118,0.330885 -0.772064,0.330885z"/>
   <path stroke="null" id="svg_8" d="m29.043964,14.33834c-0.330885,0 -0.551475,-0.110295 -0.772064,-0.330885c-0.44118,-0.44118 -0.44118,-1.102949 0,-1.544129l4.411797,-4.411797c0.44118,-0.44118 1.102949,-0.44118 1.544129,0s0.44118,1.102949 0,1.544129l-4.411797,4.411797c-0.22059,0.22059 -0.44118,0.330885 -0.772064,0.330885z"/>
   <path stroke="null" id="svg_9" d="m45.588203,22.058985l-7.720645,0c-0.66177,0 -1.102949,-0.44118 -1.102949,-1.102949s0.44118,-1.102949 1.102949,-1.102949l7.720645,0c0.66177,0 1.102949,0.44118 1.102949,1.102949s-0.44118,1.102949 -1.102949,1.102949z"/>
   <path stroke="null" id="svg_10" d="m45.588203,26.470782l-7.720645,0c-0.66177,0 -1.102949,-0.44118 -1.102949,-1.102949s0.44118,-1.102949 1.102949,-1.102949l7.720645,0c0.66177,0 1.102949,0.44118 1.102949,1.102949s-0.44118,1.102949 -1.102949,1.102949z"/>
   <path stroke="null" id="svg_11" d="m29.043964,26.470782c-0.330885,0 -0.551475,-0.110295 -0.772064,-0.330885l-2.205899,-2.205899c-0.44118,-0.44118 -0.44118,-1.102949 0,-1.544129s1.102949,-0.44118 1.544129,0l2.205899,2.205899c0.44118,0.44118 0.44118,1.102949 0,1.544129c-0.22059,0.22059 -0.44118,0.330885 -0.772064,0.330885z"/>
   <path stroke="null" id="svg_12" d="m29.043964,26.470782c-0.330885,0 -0.551475,-0.110295 -0.772064,-0.330885c-0.44118,-0.44118 -0.44118,-1.102949 0,-1.544129l4.411797,-4.411797c0.44118,-0.44118 1.102949,-0.44118 1.544129,0s0.44118,1.102949 0,1.544129l-4.411797,4.411797c-0.22059,0.22059 -0.44118,0.330885 -0.772064,0.330885z"/>
   <path stroke="null" id="svg_13" d="m45.588203,34.191427l-7.720645,0c-0.66177,0 -1.102949,-0.44118 -1.102949,-1.102949s0.44118,-1.102949 1.102949,-1.102949l7.720645,0c0.66177,0 1.102949,0.44118 1.102949,1.102949s-0.44118,1.102949 -1.102949,1.102949z"/>
   <path stroke="null" id="svg_14" d="m45.588203,38.603224l-7.720645,0c-0.66177,0 -1.102949,-0.44118 -1.102949,-1.102949s0.44118,-1.102949 1.102949,-1.102949l7.720645,0c0.66177,0 1.102949,0.44118 1.102949,1.102949s-0.44118,1.102949 -1.102949,1.102949z"/>
   <path stroke="null" id="svg_15" d="m29.043964,38.603224c-0.330885,0 -0.551475,-0.110295 -0.772064,-0.330885l-2.205899,-2.205899c-0.44118,-0.44118 -0.44118,-1.102949 0,-1.544129s1.102949,-0.44118 1.544129,0l2.205899,2.205899c0.44118,0.44118 0.44118,1.102949 0,1.544129c-0.22059,0.22059 -0.44118,0.330885 -0.772064,0.330885z"/>
   <path stroke="null" id="svg_16" d="m29.043964,38.603224c-0.330885,0 -0.551475,-0.110295 -0.772064,-0.330885c-0.44118,-0.44118 -0.44118,-1.102949 0,-1.544129l4.411797,-4.411797c0.44118,-0.44118 1.102949,-0.44118 1.544129,0s0.44118,1.102949 0,1.544129l-4.411797,4.411797c-0.22059,0.22059 -0.44118,0.330885 -0.772064,0.330885z"/>
   <path stroke="null" id="svg_17" d="m73.161934,9.926543l-7.720645,0c-0.66177,0 -1.102949,-0.44118 -1.102949,-1.102949s0.44118,-1.102949 1.102949,-1.102949l7.720645,0c0.66177,0 1.102949,0.44118 1.102949,1.102949s-0.44118,1.102949 -1.102949,1.102949z"/>
   <path stroke="null" id="svg_18" d="m73.161934,14.33834l-7.720645,0c-0.66177,0 -1.102949,-0.44118 -1.102949,-1.102949s0.44118,-1.102949 1.102949,-1.102949l7.720645,0c0.66177,0 1.102949,0.44118 1.102949,1.102949s-0.44118,1.102949 -1.102949,1.102949z"/>
   <path stroke="null" id="svg_19" d="m54.411797,14.33834c-0.330885,0 -0.551475,-0.110295 -0.772064,-0.330885c-0.44118,-0.44118 -0.44118,-1.102949 0,-1.544129l4.411797,-4.411797c0.44118,-0.44118 1.102949,-0.44118 1.544129,0s0.44118,1.102949 0,1.544129l-4.411797,4.411797c-0.22059,0.22059 -0.44118,0.330885 -0.772064,0.330885z"/>
   <path stroke="null" id="svg_20" d="m73.161934,22.058985l-7.720645,0c-0.66177,0 -1.102949,-0.44118 -1.102949,-1.102949s0.44118,-1.102949 1.102949,-1.102949l7.720645,0c0.66177,0 1.102949,0.44118 1.102949,1.102949s-0.44118,1.102949 -1.102949,1.102949z"/>
   <path stroke="null" id="svg_21" d="m73.161934,26.470782l-7.720645,0c-0.66177,0 -1.102949,-0.44118 -1.102949,-1.102949s0.44118,-1.102949 1.102949,-1.102949l7.720645,0c0.66177,0 1.102949,0.44118 1.102949,1.102949s-0.44118,1.102949 -1.102949,1.102949z"/>
   <path stroke="null" id="svg_22" d="m73.161934,34.191427l-7.720645,0c-0.66177,0 -1.102949,-0.44118 -1.102949,-1.102949s0.44118,-1.102949 1.102949,-1.102949l7.720645,0c0.66177,0 1.102949,0.44118 1.102949,1.102949s-0.44118,1.102949 -1.102949,1.102949z"/>
   <path stroke="null" id="svg_23" d="m73.161934,38.603224l-7.720645,0c-0.66177,0 -1.102949,-0.44118 -1.102949,-1.102949s0.44118,-1.102949 1.102949,-1.102949l7.720645,0c0.66177,0 1.102949,0.44118 1.102949,1.102949s-0.44118,1.102949 -1.102949,1.102949z"/>
   <path stroke="null" id="svg_24" d="m58.823594,14.33834c-0.330885,0 -0.551475,-0.110295 -0.772064,-0.330885l-4.411797,-4.411797c-0.44118,-0.44118 -0.44118,-1.102949 0,-1.544129s1.102949,-0.44118 1.544129,0l4.411797,4.411797c0.44118,0.44118 0.44118,1.102949 0,1.544129c-0.22059,0.22059 -0.44118,0.330885 -0.772064,0.330885z"/>
   <path stroke="null" id="svg_25" d="m54.411797,26.470782c-0.330885,0 -0.551475,-0.110295 -0.772064,-0.330885c-0.44118,-0.44118 -0.44118,-1.102949 0,-1.544129l4.411797,-4.411797c0.44118,-0.44118 1.102949,-0.44118 1.544129,0s0.44118,1.102949 0,1.544129l-4.411797,4.411797c-0.22059,0.22059 -0.44118,0.330885 -0.772064,0.330885z"/>
   <path stroke="null" id="svg_26" d="m58.823594,26.470782c-0.330885,0 -0.551475,-0.110295 -0.772064,-0.330885l-4.411797,-4.411797c-0.44118,-0.44118 -0.44118,-1.102949 0,-1.544129s1.102949,-0.44118 1.544129,0l4.411797,4.411797c0.44118,0.44118 0.44118,1.102949 0,1.544129c-0.22059,0.22059 -0.44118,0.330885 -0.772064,0.330885z"/>
   <path stroke="null" id="svg_27" d="m54.411797,38.603224c-0.330885,0 -0.551475,-0.110295 -0.772064,-0.330885c-0.44118,-0.44118 -0.44118,-1.102949 0,-1.544129l4.411797,-4.411797c0.44118,-0.44118 1.102949,-0.44118 1.544129,0s0.44118,1.102949 0,1.544129l-4.411797,4.411797c-0.22059,0.22059 -0.44118,0.330885 -0.772064,0.330885z"/>
   <path stroke="null" id="svg_28" d="m58.823594,38.603224c-0.330885,0 -0.551475,-0.110295 -0.772064,-0.330885l-4.411797,-4.411797c-0.44118,-0.44118 -0.44118,-1.102949 0,-1.544129s1.102949,-0.44118 1.544129,0l4.411797,4.411797c0.44118,0.44118 0.44118,1.102949 0,1.544129c-0.22059,0.22059 -0.44118,0.330885 -0.772064,0.330885z"/>
  </g>
 </g>
</svg>