<svg width="99.99999999999999" height="76" xmlns="http://www.w3.org/2000/svg">
 <title>Advertising - Promotion - Marketing - Business_11</title>

 <g>
  <title>background</title>
  <rect fill="none" id="canvas_background" height="78" width="102" y="-1" x="-1"/>
 </g>
 <g>
  <title>Layer 1</title>
  <path id="svg_1" d="m41,28.3l1.2,0l0,4.4c0,1.7 1.3,3 3,3l5.6,0c1.7,0 3,-1.3 3,-3l0,-1.6l8.5,2.4c0.6,0.2 1.3,0 1.8,-0.3c0.5,-0.4 0.8,-1 0.8,-1.6l0,-21.1c0,-0.6 -0.3,-1.2 -0.8,-1.6c-0.5,-0.4 -1.1,-0.5 -1.8,-0.3l-18.4,5.2l-2.9,0c-4,-0.1 -7.4,3 -7.6,7c-0.1,4 3,7.4 7,7.6c0.2,-0.1 0.4,-0.1 0.6,-0.1zm8.8,3.4l-3.5,0l0,-2.7l3.5,1l0,1.7zm-8.8,-14l3.2,0c0.2,0 0.4,0 0.5,-0.1l16.1,-4.5l0,15.8l-16.1,-4.5c-0.2,-0.1 -0.4,-0.1 -0.5,-0.1l-3.2,0c-1.8,0.1 -3.4,-1.3 -3.5,-3.1s1.3,-3.4 3.1,-3.5c0.2,0 0.3,0 0.4,0zm33,-17.7l-48,0c-1.1,0 -2,0.9 -2,2l0,71.5c0,1.1 0.9,2 2,2l48,0c1.1,0 2,-0.9 2,-2l0,-71.5c0,-1.1 -0.9,-2 -2,-2zm-2,71.5l-44,0l0,-67.5l44,0l0,67.5zm-7.8,-30c1.1,0 2,0.9 2,2s-0.9,2 -2,2l-28.4,0c-1.1,0 -2,-0.9 -2,-2s0.9,-2 2,-2l28.4,0zm2,11.3c0,1.1 -0.9,2 -2,2l-28.4,0c-1.1,0 -2,-0.9 -2,-2s0.9,-2 2,-2l28.4,0c1.1,0 2,0.9 2,2z"/>
 </g>
</svg>