<svg width="333" height="200" xmlns="http://www.w3.org/2000/svg">
 <g>
  <title>background</title>
  <rect x="-1" y="-1" width="335" height="202" id="canvas_background" fill="none"/>
 </g>

 <g>
  <title>Layer 1</title>
  <g id="svg_1" stroke="null">
   <g id="svg_2" stroke="null">
    <path d="m231.300003,12.040001l-129.600005,0c-17.280001,0 -31.200001,13.920001 -31.200001,31.200001l0,79.200003c0,17.280001 13.920001,31.200001 31.200001,31.200001l56.160002,0l-28.320001,26.160001c-1.92,1.92 -2.16,4.8 -0.24,6.72c0.96,0.96 2.16,1.44 3.6,1.44c1.2,0 2.4,-0.48 3.36,-1.2l30.240001,-28.080001l30.240001,28.080001c0.96,0.96 2.16,1.2 3.36,1.2s2.64,-0.48 3.6,-1.44c1.92,-1.92 1.68,-5.04 -0.24,-6.72l-28.320001,-26.160001l56.160002,0c17.280001,0 31.200001,-13.920001 31.200001,-31.200001l0,-79.200003c0,-17.280001 -13.920001,-31.200001 -31.200001,-31.200001l0.000001,0zm21.600001,110.400005c0,12.000001 -9.6,21.600001 -21.600001,21.600001l-129.600005,0c-12.000001,0 -21.600001,-9.6 -21.600001,-21.600001l0,-79.200003c0,-12.000001 9.6,-21.600001 21.600001,-21.600001l129.600005,0c12.000001,0 21.600001,9.6 21.600001,21.600001l0,79.200003z" id="svg_3" stroke="null"/>
    <path d="m225.540003,78.040004l-118.080005,0c-2.64,0 -4.8,2.16 -4.8,4.8s2.16,4.8 4.8,4.8l118.080005,0c2.64,0 4.8,-2.16 4.8,-4.8s-2.16,-4.8 -4.8,-4.8z" id="svg_4" stroke="null"/>
    <path d="m225.540003,54.520003l-96.480004,0c-2.64,0 -4.8,2.16 -4.8,4.8c0,2.64 2.16,4.8 4.8,4.8l96.480004,0c2.64,0 4.8,-2.16 4.8,-4.8s-2.16,-4.8 -4.8,-4.8z" id="svg_5" stroke="null"/>
    <path d="m203.940002,101.320005l-96.480004,0c-2.64,0 -4.8,2.16 -4.8,4.8s2.16,4.8 4.8,4.8l96.480004,0c2.64,0 4.8,-2.16 4.8,-4.8s-2.16,-4.8 -4.8,-4.8z" id="svg_6" stroke="null"/>
   </g>
  </g>
 </g>
</svg>