<svg width="333" height="230" xmlns="http://www.w3.org/2000/svg">

 <g>
  <title>background</title>
  <rect fill="none" id="canvas_background" height="232" width="335" y="-1" x="-1"/>
 </g>
 <g>
  <title>Layer 1</title>
  <g stroke="null" id="svg_1">
   <path stroke="null" id="svg_2" d="m66.166667,10l205.33334,0l0,210.000007l-210.000007,0l0,-210.000007l4.666667,0zm63.000002,199.888895l0,-129.888893l-58.333335,0l0,129.888893l58.333335,0zm9.333334,-129.888893l0,129.888893l122.888893,0l0,-129.888893l-122.888893,0zm-67.666669,-10.111111l190.555562,0l0,-50.555557l-190.555562,0l0,50.555557z"/>
  </g>
  <path stroke="null" id="svg_3" d="m229.117371,114.899999l-57.55483,0c-1.979189,0 -3.562541,1.534074 -3.562541,3.451666l0,55.763583c0,1.917592 1.583352,3.451666 3.562541,3.451666l30.242015,0l0,-24.084959l-7.679255,0l0,-9.587961l7.283417,0c0,-0.920444 -0.079168,-8.053888 0.475005,-9.664665c0,0 0,-0.076704 0,-0.076704c0,0 0,0 0,0c3.404206,-12.579405 20.425235,-8.667517 20.662738,-8.590813l0,0l0,0l0,0l0,8.360702l0,0.076704l0,0.383518c0,0 -8.708434,-0.997148 -9.341774,4.141999l0,5.369258l8.391763,0l0.950011,0l-0.950011,9.587961l-8.629266,0l0,24.084959l16.071019,0c1.979189,0 3.562541,-1.534074 3.562541,-3.451666l0,-55.763583c0.079168,-1.917592 -1.504184,-3.451666 -3.483373,-3.451666z"/>
 </g>
</svg>