<svg width="100" height="91" xmlns="http://www.w3.org/2000/svg" xmlns:xlink="http://www.w3.org/1999/xlink">
 <style type="text/css">.st0{display:none;}
	.st1{display:inline;}
	.st2{clip-path:url(#SVGID_2_);}
	.st3{fill:none;stroke:#000000;stroke-linecap:round;stroke-linejoin:round;stroke-miterlimit:10;}
	.st4{clip-path:url(#SVGID_4_);}
	.st5{fill:none;stroke:#000000;stroke-width:0.5;stroke-linecap:round;stroke-linejoin:round;stroke-miterlimit:10;}
	.st6{clip-path:url(#SVGID_6_);}
	.st7{clip-path:url(#SVGID_8_);}
	.st8{fill:none;stroke:#000000;stroke-width:2;stroke-linecap:round;stroke-linejoin:round;stroke-miterlimit:10;}
	.st9{fill:none;stroke:#000000;stroke-width:3;stroke-linecap:round;stroke-linejoin:round;stroke-miterlimit:10;}
	.st10{stroke:#000000;stroke-width:3;stroke-linecap:round;stroke-linejoin:round;stroke-miterlimit:10;}</style>
 <g>
  <title>background</title>
  <rect fill="none" id="canvas_background" height="93" width="102" y="-1" x="-1"/>
 </g>
 <g>
  <title>Layer 1</title>
  <g id="svg_1" class="st0">
   <g id="svg_2" class="st1">
    <g id="svg_3">
     <g id="svg_4">
      <defs>
       <polygon points="26,-33.7 10,-33.7 10,-90.7 70,-90.7 70,-95.7 5,-95.7 5,-28.7 26,-28.7      " id="SVGID_1_"/>
      </defs>
      <clipPath id="SVGID_2_">
       <use id="svg_5" xlink:href="#SVGID_1_"/>
      </clipPath>
      <g id="svg_6" class="st2">
       <line id="svg_7" y2="-36.4" x2="72.5" y1="34" x1="2.1" class="st3"/>
       <line id="svg_8" y2="-46.4" x2="72.5" y1="24" x1="2.1" class="st3"/>
       <line id="svg_9" y2="-56.3" x2="72.5" y1="14" x1="2.1" class="st3"/>
       <line id="svg_10" y2="-66.3" x2="72.5" y1="4" x1="2.1" class="st3"/>
      </g>
     </g>
     <g id="svg_11">
      <defs>
       <polygon points="26,-33.7 10,-33.7 10,-90.7 70,-90.7 70,-95.7 5,-95.7 5,-28.7 26,-28.7      " id="SVGID_3_"/>
      </defs>
      <clipPath id="SVGID_4_">
       <use id="svg_12" xlink:href="#SVGID_3_"/>
      </clipPath>
      <g id="svg_13" class="st4">
       <line id="svg_14" y2="-31.4" x2="72.5" y1="39" x1="2.1" class="st5"/>
       <line id="svg_15" y2="-41.4" x2="72.5" y1="29" x1="2.1" class="st5"/>
       <line id="svg_16" y2="-51.4" x2="72.5" y1="19" x1="2.1" class="st5"/>
       <line id="svg_17" y2="-61.3" x2="72.5" y1="9" x1="2.1" class="st5"/>
      </g>
     </g>
    </g>
   </g>
   <g id="svg_18" class="st1">
    <g id="svg_19">
     <g id="svg_20">
      <defs>
       <path d="m80,90c0,2.8 -2.2,5 -5,5l-50,0c-2.8,0 -5,-2.2 -5,-5l0,-80c0,-2.8 2.2,-5 5,-5l50,0c2.8,0 5,2.2 5,5l0,80z" id="SVGID_5_"/>
      </defs>
      <clipPath id="SVGID_6_">
       <use id="svg_21" xlink:href="#SVGID_5_"/>
      </clipPath>
      <g id="svg_22" class="st6">
       <line id="svg_23" y2="75.8" x2="87.2" y1="146.2" x1="16.8" class="st3"/>
       <line id="svg_24" y2="65.8" x2="87.2" y1="136.2" x1="16.8" class="st3"/>
       <line id="svg_25" y2="55.8" x2="87.2" y1="126.2" x1="16.8" class="st3"/>
       <line id="svg_26" y2="45.8" x2="87.2" y1="116.2" x1="16.8" class="st3"/>
       <line id="svg_27" y2="35.8" x2="87.2" y1="106.2" x1="16.8" class="st3"/>
       <line id="svg_28" y2="25.8" x2="87.2" y1="96.2" x1="16.8" class="st3"/>
       <line id="svg_29" y2="15.8" x2="87.2" y1="86.2" x1="16.8" class="st3"/>
       <line id="svg_30" y2="5.8" x2="87.2" y1="76.2" x1="16.8" class="st3"/>
       <line id="svg_31" y2="-4.2" x2="87.2" y1="66.2" x1="16.8" class="st3"/>
       <line id="svg_32" y2="-14.2" x2="87.2" y1="56.2" x1="16.8" class="st3"/>
       <line id="svg_33" y2="-24.2" x2="87.2" y1="46.2" x1="16.8" class="st3"/>
       <line id="svg_34" y2="-34.2" x2="87.2" y1="36.2" x1="16.8" class="st3"/>
       <line id="svg_35" y2="-44.2" x2="87.2" y1="26.2" x1="16.8" class="st3"/>
       <line id="svg_36" y2="-54.2" x2="87.2" y1="16.2" x1="16.8" class="st3"/>
      </g>
     </g>
     <g id="svg_37">
      <defs>
       <path d="m80,90c0,2.8 -2.2,5 -5,5l-50,0c-2.8,0 -5,-2.2 -5,-5l0,-80c0,-2.8 2.2,-5 5,-5l50,0c2.8,0 5,2.2 5,5l0,80z" id="SVGID_7_"/>
      </defs>
      <clipPath id="SVGID_8_">
       <use id="svg_38" xlink:href="#SVGID_7_"/>
      </clipPath>
      <g id="svg_39" class="st7">
       <line id="svg_40" y2="80.8" x2="87.2" y1="151.2" x1="16.8" class="st5"/>
       <line id="svg_41" y2="70.8" x2="87.2" y1="141.2" x1="16.8" class="st5"/>
       <line id="svg_42" y2="60.8" x2="87.2" y1="131.2" x1="16.8" class="st5"/>
       <line id="svg_43" y2="50.8" x2="87.2" y1="121.2" x1="16.8" class="st5"/>
       <line id="svg_44" y2="40.8" x2="87.2" y1="111.2" x1="16.8" class="st5"/>
       <line id="svg_45" y2="30.8" x2="87.2" y1="101.2" x1="16.8" class="st5"/>
       <line id="svg_46" y2="20.8" x2="87.2" y1="91.2" x1="16.8" class="st5"/>
       <line id="svg_47" y2="10.8" x2="87.2" y1="81.2" x1="16.8" class="st5"/>
       <line id="svg_48" y2="0.8" x2="87.2" y1="71.2" x1="16.8" class="st5"/>
       <line id="svg_49" y2="-9.2" x2="87.2" y1="61.2" x1="16.8" class="st5"/>
       <line id="svg_50" y2="-19.2" x2="87.2" y1="51.2" x1="16.8" class="st5"/>
       <line id="svg_51" y2="-29.2" x2="87.2" y1="41.2" x1="16.8" class="st5"/>
       <line id="svg_52" y2="-39.2" x2="87.2" y1="31.2" x1="16.8" class="st5"/>
       <line id="svg_53" y2="-49.2" x2="87.2" y1="21.2" x1="16.8" class="st5"/>
      </g>
     </g>
    </g>
    <path id="svg_54" d="m80,90c0,2.8 -2.2,5 -5,5l-50,0c-2.8,0 -5,-2.2 -5,-5l0,-80c0,-2.8 2.2,-5 5,-5l50,0c2.8,0 5,2.2 5,5l0,80z" class="st8"/>
    <path id="svg_55" d="m80,90c0,2.8 -2.2,5 -5,5l-50,0c-2.8,0 -5,-2.2 -5,-5l0,-80c0,-2.8 2.2,-5 5,-5l50,0c2.8,0 5,2.2 5,5l0,80z" class="st9"/>
    <rect id="svg_56" height="70" width="48" class="st10" y="11" x="26"/>
    <circle id="svg_57" r="3.5" cy="88" cx="50" class="st10"/>
    <g id="svg_58">
     <rect id="svg_59" height="35" width="35" class="st9" y="34.4" x="32.4"/>
     <path id="svg_60" d="m46.3,43.9c0,2.4 -2,4.4 -4.4,4.4c-2.4,0 -4.4,-2 -4.4,-4.4s2,-4.4 4.4,-4.4c2.4,0 4.4,2 4.4,4.4z" class="st9"/>
     <polyline id="svg_61" points="54.2,69.1 39.5,54.4 32.6,61.4    " class="st9"/>
     <polyline id="svg_62" points="42.5,57.4 52.2,47.7 67.3,62.7    " class="st9"/>
    </g>
    <rect id="svg_63" height="7.8" width="7.8" class="st9" y="20.6" x="32.6"/>
    <line id="svg_64" y2="27.4" x2="62.6" y1="27.4" x1="45.3" class="st9"/>
    <line id="svg_65" y2="21.6" x2="67.6" y1="21.6" x1="45.3" class="st9"/>
   </g>
  </g>
  <g id="svg_66">
   <path id="svg_67" d="m64.5,40.2l-2.5,2.5c-0.2,0.2 -0.5,0.3 -0.7,0.3s-0.5,-0.1 -0.7,-0.3l-2.6,-2.5c-0.4,-0.4 -0.4,-1 0,-1.4s1,-0.4 1.4,0l1.8,1.8l1.8,-1.8c0.4,-0.4 1,-0.4 1.4,0s0.5,1 0.1,1.4zm-6,-5.2c-0.4,-0.4 -1,-0.4 -1.4,0l-1.8,1.8l-1.8,-1.8c-0.4,-0.4 -1,-0.4 -1.4,0s-0.4,1 0,1.4l2.5,2.5c0.2,0.2 0.5,0.3 0.7,0.3s0.5,-0.1 0.7,-0.3l2.5,-2.5c0.4,-0.4 0.4,-1 0,-1.4zm10.4,-5.6l0,35c0,0.8 -0.7,1.5 -1.5,1.5l-35,0c-0.8,0 -1.5,-0.7 -1.5,-1.5l0,-35c0,-0.8 0.7,-1.5 1.5,-1.5l35,0c0.9,0 1.5,0.6 1.5,1.5zm-35,1.5l0,22l4.5,-4.5c0.6,-0.6 1.6,-0.6 2.1,0l1.9,1.9l8.6,-8.6c0.6,-0.6 1.6,-0.6 2.1,0l12.7,12.7l0,-23.5l-31.9,0zm0,32l17,0l-11.4,-11.4l-5.6,5.6l0,5.8l0,0zm32,0l0,-4.3l-13.7,-13.8l-7.6,7.6l10.5,10.5l10.8,0zm-29.8,-24c0,-3.2 2.6,-5.9 5.9,-5.9s5.9,2.6 5.9,5.9s-2.6,5.9 -5.9,5.9s-5.9,-2.7 -5.9,-5.9zm3,0c0,1.6 1.3,2.9 2.9,2.9s2.9,-1.3 2.9,-2.9s-1.4,-2.9 -3,-2.9s-2.8,1.3 -2.8,2.9zm-8,-15.5l0,-7.8c0,-0.8 0.7,-1.5 1.5,-1.5l7.8,0c0.8,0 1.5,0.7 1.5,1.5l0,7.8c0,0.8 -0.7,1.5 -1.5,1.5l-7.8,0c-0.9,0 -1.5,-0.7 -1.5,-1.5zm3,-1.5l4.8,0l0,-4.8l-4.8,0l0,4.8zm11.2,2l17.2,0c0.8,0 1.5,-0.7 1.5,-1.5s-0.7,-1.5 -1.5,-1.5l-17.2,0c-0.8,0 -1.5,0.7 -1.5,1.5s0.7,1.5 1.5,1.5zm0,-5.8l22.2,0c0.8,0 1.5,-0.7 1.5,-1.5s-0.7,-1.5 -1.5,-1.5l-22.2,0c-0.8,0 -1.5,0.7 -1.5,1.5s0.7,1.5 1.5,1.5zm35.2,-11.8l0,77.4c0,3.5 -2.8,6.3 -6.3,6.3l-48.4,0c-3.5,0 -6.3,-2.8 -6.3,-6.3l0,-77.4c0,-3.5 2.8,-6.3 6.3,-6.3l48.4,0c3.5,0 6.3,2.8 6.3,6.3zm-3,-0.7c0,0.2 0.1,0.4 0.1,0.6c0,-0.2 -0.1,-0.4 -0.1,-0.6zm-2.1,-2.5c0.2,0.1 0.3,0.1 0.5,0.2l-2.5,2.5c0.7,0.1 1.3,0.7 1.3,1.4l0,1.1l2.8,-2.8c-0.3,-1.1 -1,-2 -2.1,-2.4zm-4.2,-0.2l-2.9,2.9l3.8,0l2.8,-2.8c0,0 0.1,0 0.1,0c-0.3,-0.1 -0.5,-0.1 -0.8,-0.1l-3,0l0,0zm-11.7,73.6l-3.8,0l-2.1,2.1c0.6,0.7 1.1,1.6 1.2,2.6l4.7,-4.7zm-11.4,5.3c0,1.1 0.9,1.9 1.9,1.9s1.9,-0.9 1.9,-1.9s-0.9,-1.9 -1.9,-1.9s-1.9,0.8 -1.9,1.9zm1.8,-4.9c-0.2,0 -0.3,0 -0.5,0c0.1,0.1 0.3,0 0.5,0zm3.3,1.3l1.8,-1.8l-3.8,0l-0.6,0.6c1,0.1 1.9,0.6 2.6,1.2zm18.6,-4.7l0,-64.8l-43.6,0l0,64.8l43.6,0zm-5.1,-70.6l-2.9,2.9l3.8,0l2.9,-2.9l-3.8,0zm-5.2,0l-2.9,2.9l3.8,0l2.9,-2.9l-3.8,0zm-4.5,0l-2.9,2.9l3.8,0l2.9,-2.9l-3.8,0zm-5.2,0l-2.9,2.9l3.8,0l2.9,-2.9l-3.8,0zm-4.5,0l-2.9,2.9l3.8,0l2.9,-2.9l-3.8,0zm-5.2,0l-2.9,2.9l3.8,0l2.9,-2.9l-3.8,0zm-4.5,0l-2.9,2.9l3.8,0l2.9,-2.9l-3.8,0zm-5.1,0l-2.9,2.9l3.8,0l2.9,-2.9l-3.8,0zm-10.1,4.2l4.2,-4.2l-0.8,0c-1.9,0 -3.4,1.5 -3.4,3.4l0,0.8l0,0zm0,5.1l2.9,-2.9l0,-2.1c0,-0.8 0.6,-1.5 1.5,-1.5l2.1,0l2.9,-2.9l-3.8,0l-5.5,5.5l-0.1,3.9l0,0zm0,4.5l2.9,-2.9l0,-3.8l-2.9,2.9l0,3.8zm0,5.2l2.9,-2.9l0,-3.8l-2.9,2.9l0,3.8zm0,4.5l2.9,-2.9l0,-3.8l-2.9,2.9l0,3.8zm0,5.2l2.9,-2.9l0,-3.8l-2.9,2.9l0,3.8zm0,4.5l2.9,-2.9l0,-3.8l-2.9,2.9l0,3.8zm0,5.2l2.9,-2.9l0,-3.8l-2.9,2.9l0,3.8zm0,4.5l2.9,-2.9l0,-3.8l-2.9,2.9l0,3.8zm0,5.2l2.9,-2.9l0,-3.8l-2.9,2.9l0,3.8zm0,4.5l2.9,-2.9l0,-3.8l-2.9,2.9l0,3.8zm0,5.1l2.9,-2.9l0,-3.8l-2.9,2.9l0,3.8zm0,4.5l2.9,-2.9l0,-3.8l-2.9,2.9l0,3.8zm0,5.2l2.9,-2.9l0,-3.8l-2.9,2.9l0,3.8zm0,4.5l2.9,-2.9l0,-3.8l-2.9,2.9l0,3.8zm0,5.2l3.7,-3.7c-0.5,-0.2 -0.8,-0.7 -0.8,-1.3l0,-1.7l-2.9,2.9l0,3.8l0,0zm0,3.7c0,0.2 0,0.5 0.1,0.7c0,0 0,0 0,0l8,-8l-3.7,0c0,0 -0.1,0 -0.1,0l-4.2,4.2c-0.1,0.1 -0.1,3.1 -0.1,3.1zm0.5,1.7c-0.1,-0.1 -0.2,-0.3 -0.2,-0.5c0,0.2 0.1,0.3 0.2,0.5zm2.2,1.6l10.6,-10.6l-3.8,0l-8.9,8.9c0.4,0.9 1.1,1.5 2.1,1.7zm0.6,0.1c-0.2,0 -0.4,0 -0.6,-0.1c0.2,0.1 0.4,0.1 0.6,0.1zm3.8,0l10.6,-10.6l-3.8,0l-10.6,10.6c0,0 0.1,0 0.1,0l3.7,0zm5.2,0l10.6,-10.6l-3.8,0l-10.6,10.6l3.8,0zm4.5,0l6.1,-6.1c0.3,-2.1 2,-3.7 4,-4l0.6,-0.6l-3.9,0l-10.6,10.7l3.8,0zm6,-5.3c0,-0.2 0,-0.5 0.1,-0.7c-0.1,0.2 -0.1,0.4 -0.1,0.7zm-0.9,5.3l2.1,-2.1c0,0 0,0 0,0c-0.8,-0.9 -1.3,-2 -1.3,-3.3l0,0c0,0.2 0,0.4 0.1,0.6l-4.7,4.7l3.8,0.1l0,0zm9.7,0l10.6,-10.6l-3.8,0l-6.1,6.1c0,-0.3 0.1,-0.5 0.1,-0.8l0,0c0,2.7 -2.2,4.8 -4.8,4.8c-1.3,0 -2.4,-0.5 -3.3,-1.3c0,0 0,0 0,0l-1.7,1.8l3.8,0l0.5,-0.5c0.2,0 0.4,0.1 0.6,0.1c0.3,0 0.5,0 0.8,-0.1l-0.6,0.6l3.9,-0.1l0,0zm4.5,0l10.6,-10.6l-3.8,0l-10.6,10.6l3.8,0zm19.1,-3.5l-3.5,3.5l0.1,0c1.9,0 3.4,-1.5 3.4,-3.4l0,-0.1l0,0zm0,-4.5l-8,8l3.8,0l4.2,-4.2l0,-3.8l0,0zm0,-5.2l-13.2,13.2l3.8,0l9.4,-9.4c0,0 0,-3.8 0,-3.8zm0,-4.5l-2.9,2.9l0,2.7c0,0.8 -0.6,1.5 -1.5,1.5l-2.7,0l-10.6,10.6l3.8,0l13.9,-13.9l0,-3.8zm0,-5.2l-2.9,2.9l0,3.8l2.9,-2.9l0,-3.8zm0,-4.5l-2.9,2.9l0,3.8l2.9,-2.9l0,-3.8zm0,-5.2l-2.9,2.9l0,3.8l2.9,-2.9l0,-3.8zm0,-4.5l-2.9,3l0,3.8l2.9,-2.9l0,-3.9zm0,-5.1l-2.9,2.9l0,3.8l2.9,-2.9l0,-3.8zm0,-4.5l-2.9,2.9l0,3.8l2.9,-2.9l0,-3.8zm0,-5.2l-2.9,2.9l0,3.8l2.9,-2.9l0,-3.8zm0,-4.5l-2.9,2.9l0,3.8l2.9,-2.9l0,-3.8zm0,-5.2l-2.9,2.9l0,3.8l2.9,-2.9l0,-3.8zm0,-4.5l-2.9,2.9l0,3.8l2.9,-2.9l0,-3.8zm0,-5.2l-2.9,2.9l0,3.8l2.9,-2.9l0,-3.8zm0,-4.5l-2.9,2.9l0,3.8l2.9,-2.9l0,-3.8zm0,-5c0,0 0,-0.1 0,-0.1l-2.9,2.9l0,3.8l2.9,-2.9l0,-3.7l0,0z"/>
  </g>
 </g>
</svg>