<?xml version="1.0" encoding="UTF-8" standalone="no"?>
<svg width="24px" height="26px" viewBox="0 0 24 26" version="1.1" xmlns="http://www.w3.org/2000/svg" xmlns:xlink="http://www.w3.org/1999/xlink" xmlns:sketch="http://www.bohemiancoding.com/sketch/ns">
    <!-- Generator: Sketch 3.4.2 (15855) - http://www.bohemiancoding.com/sketch -->
    <title>author_ 375089</title>
    <desc>Created with Sketch.</desc>
    <defs></defs>
    <g id="Page-1" stroke="none" stroke-width="1" fill="none" fill-rule="evenodd" sketch:type="MSPage">
        <g id="author_-375089" sketch:type="MSLayerGroup">
            <g id="Layer_1" transform="translate(0.428571, 0.555556)" sketch:type="MSShapeGroup">
                <rect id="Rectangle-1" fill="#FFFFFF" x="0" y="0" width="23.1428571" height="24.8888889"></rect>
                <g id="Group" transform="translate(1.285714, 1.777778)" fill="#375089">
                    <path d="M10.2848571,9.23111111 C7.79871429,9.23111111 5.77585714,7.16044444 5.77585714,4.61511111 C5.77628571,2.07022222 7.79914286,0 10.2848571,0 C12.7697143,0 14.7917143,2.07022222 14.7917143,4.61511111 C14.7917143,7.16044444 12.7697143,9.23111111 10.2848571,9.23111111 L10.2848571,9.23111111 L10.2848571,9.23111111 Z" id="Shape"></path>
                    <path d="M20.1424286,21.3333333 L0.429,21.3333333 C0.192428571,21.3333333 0.000428571429,21.1346667 0.000428571429,20.8888889 C0.000428571429,15.0848889 4.614,10.3631111 10.2848571,10.3631111 C15.9565714,10.3631111 20.571,15.0853333 20.571,20.8888889 C20.571,21.1346667 20.3794286,21.3333333 20.1424286,21.3333333 L20.1424286,21.3333333 L20.1424286,21.3333333 Z" id="Shape"></path>
                </g>
            </g>
        </g>
    </g>
</svg>