<?xml version="1.0" encoding="UTF-8" standalone="no"?>
<svg width="23px" height="23px" viewBox="0 0 23 23" version="1.1" xmlns="http://www.w3.org/2000/svg" xmlns:xlink="http://www.w3.org/1999/xlink" xmlns:sketch="http://www.bohemiancoding.com/sketch/ns">
    <!-- Generator: Sketch 3.4.2 (15855) - http://www.bohemiancoding.com/sketch -->
    <title>balao_01_ 375089</title>
    <desc>Created with Sketch.</desc>
    <defs></defs>
    <g id="Page-1" stroke="none" stroke-width="1" fill="none" fill-rule="evenodd" sketch:type="MSPage">
        <g id="balao_01_-375089" sketch:type="MSLayerGroup">
            <g id="Group" sketch:type="MSShapeGroup">
                <path d="M4.13333333,0.93333333 C2.66666667,0.93333333 1.46666667,2.13333333 1.46666667,3.53333333 L1.46666667,13.6666667 C1.46666667,15.1333333 2.66666667,16.2666667 4.13333333,16.2666667 L14.4,16.2666667 L14.6,16.5333333 C16.2,18.4666667 17.0666667,21.2 17.2,21.5333333 C18.5333333,20.3333333 19,18.8 18.7333333,17.0666667 L18.6,16.2666667 L19.5333333,16.2666667 C21,16.2666667 22.2,15.0666667 22.2,13.6666667 L22.2,3.53333333 C22.2,2.06666667 21,0.93333333 19.5333333,0.93333333 L4.13333333,0.93333333 L4.13333333,0.93333333 L4.13333333,0.93333333 Z" id="Shape" stroke="#979797" fill="#000000"></path>
                <path d="M17.2,22.2 C17.4,22.2 17.5333333,22.1333333 17.6666667,22 C19.2,20.6 19.7333333,18.9333333 19.4666667,16.9333333 L19.6,16.9333333 C21.4666667,16.9333333 22.9333333,15.4666667 22.9333333,13.6666667 L22.9333333,3.53333333 C22.9333333,1.66666667 21.4,0.26666667 19.6,0.26666667 L4.2,0.26666667 C2.33333333,0.26666667 0.866666667,1.73333333 0.866666667,3.53333333 L0.866666667,13.6666667 C0.866666667,15.5333333 2.4,16.9333333 4.2,16.9333333 L14.2,16.9333333 C15.8,18.9333333 16.6666667,21.7333333 16.6666667,21.7333333 C16.7333333,21.9333333 16.9333333,22.1333333 17.1333333,22.2 L17.2,22.2 L17.2,22.2 L17.2,22.2 L17.2,22.2 Z" id="path-1_1_" fill="#375089"></path>
            </g>
        </g>
    </g>
</svg>