<?xml version="1.0" encoding="UTF-8" standalone="no"?>
<svg width="22px" height="22px" viewBox="0 0 22 22" version="1.1" xmlns="http://www.w3.org/2000/svg" xmlns:xlink="http://www.w3.org/1999/xlink" xmlns:sketch="http://www.bohemiancoding.com/sketch/ns">
    <!-- Generator: Sketch 3.4.2 (15855) - http://www.bohemiancoding.com/sketch -->
    <title>dislike-chart</title>
    <desc>Created with Sketch.</desc>
    <defs></defs>
    <g id="Page-1" stroke="none" stroke-width="1" fill="none" fill-rule="evenodd" sketch:type="MSPage">
        <g id="dislike-chart" sketch:type="MSLayerGroup" fill="#3D3B6D">
            <g id="dislike-01" sketch:type="MSShapeGroup">
                <g id="Page-1">
                    <g id="dislike-01">
                        <g id="Layer_1">
                            <path d="M16.3142857,0.2 C16.3142857,0.2 16.3142857,0.02857143 16.3142857,0.2 L21.8,0.02857143 C21.8,0.02857143 21.9714286,0.02857143 21.9714286,0.2 L21.9714286,11 C21.9714286,11 21.9714286,11.1714286 21.8,11.1714286 L16.3142857,11.1714286 C16.3142857,11.1714286 16.1428571,11.1714286 16.1428571,11 L16.3142857,0.2 Z M0.54285714,9.4571429 L1.05714286,9.1142857 L0.54285714,8.77142857 C0.54285714,8.77142857 0.2,8.42857143 0.2,7.57142857 C0.2,6.54285714 0.88571429,6.2 0.88571429,6.2 L1.57142857,5.85714286 L1.05714286,5.17142857 C1.05714286,5.17142857 0.71428571,4.82857143 0.88571429,4.31428571 C0.88571429,3.8 1.05714286,2.94285714 1.57142857,2.6 L2.08571429,2.42857143 L1.57142857,2.08571429 C1.57142857,1.74285714 1.57142857,1.05714286 1.91428571,0.54285714 C2.08571429,0.2 2.42857143,0.02857143 2.94285714,0.02857143 L13.4,0.02857143 C13.7428571,0.2 14.0857143,0.37142857 14.0857143,0.37142857 C14.2571429,0.54285714 14.4285714,1.22857143 15.2857143,1.22857143 L15.2857143,10.1428571 L13.9142857,10.1428571 L13.7428571,10.1428571 L13.5714286,10.1428571 C13.5714286,10.1428571 12.2,11.5142857 11.6857143,12.7142857 C11.1714286,13.7428571 10.6571429,14.9428571 10.3142857,15.2857143 L10.1428571,15.4571429 C9.2857143,16.1428571 7.05714286,18.2 6.88571429,20.7714286 C6.88571429,21.2857143 6.71428571,21.8 6.37142857,21.8 C6.2,21.9714286 5.85714286,21.8 5.85714286,21.8 C5.51428571,21.4571429 4.31428571,20.2571429 4.82857143,18.5428571 C5.51428571,16.4857143 6.54285714,15.1142857 6.54285714,15.1142857 C6.88571429,14.7714286 7.05714286,13.9142857 6.54285714,13.2285714 C6.37142857,12.8857143 6.02857143,12.7142857 5.68571429,12.8857143 L2.25714286,12.8857143 C2.08571429,12.8857143 0.02857143,12.7142857 0.02857143,10.8285714 C0.02857143,9.9714286 0.54285714,9.4571429 0.54285714,9.4571429 Z" id="Shape"></path>
                        </g>
                    </g>
                </g>
            </g>
        </g>
    </g>
</svg>