<?xml version="1.0" encoding="UTF-8" standalone="no"?>
<svg width="209px" height="459px" viewBox="0 0 209 459" version="1.1" xmlns="http://www.w3.org/2000/svg" xmlns:xlink="http://www.w3.org/1999/xlink">
    <!-- Generator: Sketch 42 (36781) - http://www.bohemiancoding.com/sketch -->
    <title>mobilization</title>
    <desc>Created with Sketch.</desc>
    <defs>
        <linearGradient x1="0%" y1="50%" x2="100%" y2="50%" id="linearGradient-1">
            <stop stop-color="#211147" stop-opacity="0.85" offset="0%"></stop>
            <stop stop-color="#513393" stop-opacity="0.85" offset="100%"></stop>
        </linearGradient>
    </defs>
    <g id="Page-1" stroke="none" stroke-width="1" fill="none" fill-rule="evenodd">
        <g id="Artboard" transform="translate(-1182.000000, -770.000000)" fill="url(#linearGradient-1)">
            <g id="mobilization" transform="translate(1182.000000, 770.000000)">
                <path d="M110.88,69.5 C105.766,65.109 100.2,61.258 94.301,58.033 C92.168,56.866 91.384,54.191 92.55,52.058 C93.349,50.595 94.858,49.767 96.415,49.767 C97.129,49.767 97.853,49.941 98.524,50.308 C105.17,53.942 111.428,58.302 117.155,63.286 L110.88,69.5" id="Fill-1"></path>
                <polyline id="Fill-2" points="124.74 77.173 107.803 72.546 120.281 60.191 124.74 77.173"></polyline>
                <path d="M173.451,176.278 C171.8,169.266 169.358,162.451 166.176,155.979 C165.104,153.798 166.002,151.16 168.184,150.087 C168.809,149.779 169.471,149.634 170.123,149.634 C171.748,149.634 173.31,150.538 174.076,152.095 C177.658,159.38 180.382,167.065 182.186,174.972 L173.451,176.278" id="Fill-3"></path>
                <polyline id="Fill-4" points="180.117 190.655 169.186 176.915 173.451 176.278 182.186 174.972 186.552 174.319 180.117 190.655"></polyline>
                <path d="M178.108,299.881 L170.277,295.799 C173.071,289.158 175.11,282.209 176.346,275.103 C176.718,272.963 178.576,271.454 180.674,271.454 C180.926,271.454 181.181,271.476 181.437,271.521 C183.832,271.937 185.436,274.217 185.019,276.613 C183.627,284.61 181.305,292.427 178.108,299.881" id="Fill-5"></path>
                <polyline id="Fill-6" points="167.203 311.342 166.444 293.801 178.108 299.881 182.016 301.917 167.203 311.342"></polyline>
                <path d="M83.629,406.596 L79.695,398.689 C85.853,394.963 91.593,390.546 96.79,385.531 C97.644,384.707 98.746,384.297 99.846,384.297 C100.999,384.297 102.15,384.747 103.015,385.642 C104.702,387.392 104.652,390.178 102.903,391.867 C97.061,397.504 90.585,402.453 83.629,406.596" id="Fill-7"></path>
                <polyline id="Fill-8" points="85.594 410.545 68.07 409.458 77.771 394.825 85.594 410.545"></polyline>
                <path d="M25.393,36.731 L22.072,19.556 C21.865,18.49 22.067,17.498 22.677,16.599 L33.586,0.456 C33.677,0.32 33.807,0.238 33.97,0.213 C34,0.209 34.031,0.206 34.061,0.206 C34.187,0.206 34.304,0.249 34.408,0.332 C36.882,2.328 37.461,5.942 35.649,8.624 L32.83,12.796 L41.226,11.132 C41.497,11.078 41.764,11.051 42.027,11.051 C42.928,11.051 43.771,11.366 44.5,11.973 C45.44,12.756 45.932,13.816 45.92,15.04 L45.79,28.648 C45.766,31.083 44.074,33.115 41.682,33.578 L25.393,36.731" id="Fill-9"></path>
                <path d="M11.195,39.458 C10.7,39.458 10.257,39.107 10.159,38.603 L6.908,21.805 C6.797,21.235 7.173,20.679 7.743,20.568 L19.045,18.381 C19.112,18.368 19.179,18.362 19.245,18.362 C19.741,18.362 20.186,18.714 20.282,19.219 L23.533,36.016 C23.643,36.585 23.268,37.142 22.698,37.251 L11.395,39.439 C11.327,39.452 11.261,39.458 11.195,39.458 M19.272,32.859 C19.183,32.859 19.093,32.867 19.002,32.885 C18.231,33.034 17.724,33.785 17.873,34.555 C18.004,35.235 18.605,35.71 19.273,35.71 C19.362,35.71 19.452,35.702 19.543,35.684 C20.314,35.534 20.822,34.784 20.672,34.013 C20.541,33.334 19.941,32.859 19.272,32.859" id="Fill-10"></path>
                <path d="M61.914,49.874 C61.787,49.874 61.67,49.832 61.567,49.747 C59.091,47.751 58.513,44.139 60.326,41.456 L63.145,37.284 L54.749,38.949 C54.478,39.003 54.212,39.029 53.95,39.029 C53.048,39.029 52.204,38.714 51.475,38.106 C50.534,37.322 50.043,36.262 50.055,35.038 L50.185,21.432 C50.208,18.995 51.9,16.965 54.292,16.501 L70.581,13.349 L73.902,30.523 C74.108,31.589 73.905,32.581 73.297,33.48 L62.389,49.624 C62.298,49.761 62.168,49.843 62.005,49.867 C61.974,49.872 61.944,49.874 61.914,49.874" id="Fill-11"></path>
                <path d="M76.641,31.261 C76.146,31.261 75.7,30.909 75.603,30.406 L72.353,13.609 C72.242,13.039 72.619,12.483 73.188,12.372 L84.49,10.185 C84.557,10.172 84.624,10.166 84.69,10.166 C85.186,10.166 85.629,10.518 85.727,11.021 L88.978,27.818 C89.088,28.388 88.713,28.944 88.142,29.055 L76.84,31.242 C76.773,31.255 76.707,31.261 76.641,31.261 M78.91,25.786 C78.821,25.786 78.731,25.794 78.64,25.812 C77.871,25.961 77.363,26.713 77.511,27.483 C77.643,28.162 78.242,28.637 78.911,28.637 C79,28.637 79.091,28.628 79.182,28.611 C79.952,28.462 80.46,27.711 80.311,26.941 C80.18,26.261 79.579,25.786 78.91,25.786" id="Fill-12"></path>
                <path d="M122.47,146.491 C122.143,146.491 121.813,146.428 121.498,146.298 C120.548,145.904 119.931,144.981 119.931,143.953 L119.931,105.297 C119.931,101.418 123.086,98.26 126.966,98.26 L132.624,98.26 L132.624,92.605 C132.624,88.725 135.779,85.568 139.658,85.568 L173.82,85.568 C177.698,85.568 180.854,88.725 180.854,92.605 L180.854,131.26 C180.854,132.402 180.093,133.403 178.993,133.707 C178.771,133.77 178.542,133.798 178.315,133.798 C177.439,133.798 176.604,133.347 176.14,132.567 L169.264,121.106 L160.547,121.106 L160.547,126.765 C160.547,130.643 157.392,133.798 153.513,133.798 L136.213,133.798 L124.265,145.747 C123.78,146.234 123.13,146.491 122.47,146.491 M139.658,90.645 C138.579,90.645 137.7,91.526 137.7,92.605 L137.7,98.26 L153.513,98.26 C157.392,98.26 160.547,101.418 160.547,105.297 L160.547,116.03 L170.7,116.03 C171.594,116.03 172.419,116.497 172.876,117.263 L175.777,122.096 L175.777,92.605 C175.777,91.526 174.898,90.645 173.82,90.645 L139.658,90.645 M150.393,113.491 C148.992,113.491 147.854,114.628 147.854,116.03 C147.854,117.433 148.992,118.568 150.393,118.568 C151.794,118.568 152.931,117.433 152.931,116.03 C152.931,114.628 151.794,113.491 150.393,113.491 M140.239,113.491 C138.838,113.491 137.7,114.628 137.7,116.03 C137.7,117.433 138.838,118.568 140.239,118.568 C141.641,118.568 142.777,117.433 142.777,116.03 C142.777,114.628 141.641,113.491 140.239,113.491 M130.085,113.491 C128.684,113.491 127.547,114.628 127.547,116.03 C127.547,117.433 128.684,118.568 130.085,118.568 C131.487,118.568 132.624,117.433 132.624,116.03 C132.624,114.628 131.487,113.491 130.085,113.491" id="Fill-13"></path>
                <path d="M201.674,250.726 L166.444,250.726 C165.231,250.726 164.242,249.738 164.242,248.524 L164.242,213.295 C164.242,212.081 165.231,211.093 166.444,211.093 L186.261,211.093 C187.475,211.093 188.463,212.081 188.463,213.295 C188.463,214.509 187.475,215.497 186.261,215.497 L168.646,215.497 L168.646,246.322 L199.472,246.322 L199.472,228.707 C199.472,227.495 200.46,226.506 201.674,226.506 C202.888,226.506 203.875,227.495 203.875,228.707 L203.875,248.524 C203.875,249.738 202.888,250.726 201.674,250.726" id="Fill-14"></path>
                <path d="M182.482,233.372 C181.936,233.372 181.506,232.871 181.615,232.314 L182.863,226.09 C182.897,225.916 182.984,225.76 183.105,225.639 L201.786,206.949 C201.959,206.776 202.185,206.689 202.411,206.689 C202.636,206.689 202.862,206.776 203.035,206.949 L208.02,211.925 C208.366,212.272 208.366,212.827 208.02,213.173 L189.33,231.863 C189.208,231.984 189.053,232.071 188.879,232.105 L182.655,233.355 C182.596,233.366 182.539,233.372 182.482,233.372" id="Fill-16"></path>
                <path d="M167.236,381.52 L128.596,381.52 C122.914,381.52 117.232,379.247 117.232,372.429 L117.232,333.789 C117.232,326.97 117.232,326.97 124.051,326.97 L158.145,326.97 L158.145,372.429 L121.778,372.429 C121.778,375.838 124.051,376.974 126.324,376.974 L162.69,376.974 L162.69,331.516 L167.236,336.062 L167.236,381.52 M127.688,355.427 L134.37,355.427 L135.507,358.655 L153.599,358.655 L153.599,354.79 L144.552,354.79 L152.871,343.745 L152.871,340.745 L140.098,340.745 L140.098,344.608 L147.734,344.608 L139.234,355.655 L139.234,356.064 L133.006,340.745 L128.87,340.745 L121.778,358.655 L126.596,358.655 L127.688,355.427 M133.098,351.836 L128.87,351.836 L130.915,345.79 L133.098,351.836" id="Fill-18"></path>
                <path d="M49.449,459 L3.381,459 C1.521,459 0,457.479 0,455.62 L0,409.552 C0,407.693 1.521,406.172 3.381,406.172 L49.449,406.172 C51.308,406.172 52.829,407.693 52.829,409.552 L52.829,455.62 C52.829,457.479 51.308,459 49.449,459 M2.935,415.608 L2.935,455.62 C2.935,455.858 3.144,456.066 3.381,456.066 L49.449,456.066 C49.686,456.066 49.895,455.856 49.894,455.62 L49.894,415.608 L2.935,415.608 M5.224,409.467 C4.306,409.467 3.56,410.211 3.56,411.131 C3.56,412.05 4.306,412.795 5.224,412.795 C6.143,412.795 6.888,412.05 6.888,411.131 C6.888,410.212 6.143,409.467 5.224,409.467 M9.258,410.165 C8.725,410.165 8.292,410.597 8.292,411.131 C8.292,411.665 8.725,412.097 9.258,412.097 L49.003,412.097 C49.54,412.097 49.969,411.665 49.969,411.131 C49.969,410.597 49.536,410.165 49.003,410.165 L9.258,410.165" id="Fill-19"></path>
                <path d="M26.415,431.677 C24.893,431.677 23.639,430.603 23.371,429.17 L26.505,428.723 L28.834,426.753 C29.191,427.29 29.461,427.917 29.461,428.633 C29.461,430.335 28.117,431.677 26.415,431.677" id="Fill-20"></path>
                <path d="M22.654,428.902 L22.654,428.543 C22.654,427.648 22.922,426.842 23.46,426.215 L26.146,428.455 L22.654,428.902" id="Fill-21"></path>
                <path d="M26.415,428.365 L23.908,426.216 C24.535,425.589 25.43,425.142 26.415,425.142 C27.4,425.142 28.296,425.589 28.922,426.306 L26.415,428.365" id="Fill-22"></path>
                <path d="M32.146,430.335 C31.787,429.62 31.698,428.902 31.787,428.096 C31.967,426.843 32.772,425.768 33.848,425.231 L35.19,428.543 L32.146,430.335" id="Fill-23"></path>
                <path d="M35.652,431.714 C35.5,431.714 35.346,431.702 35.19,431.677 C34.205,431.588 33.4,431.052 32.952,430.246 L35.548,428.634 L34.384,425.768 C34.778,425.637 35.171,425.554 35.564,425.554 C35.708,425.554 35.852,425.565 35.996,425.589 C37.697,425.768 38.951,427.469 38.682,429.08 C38.437,430.545 37.159,431.714 35.652,431.714" id="Fill-24"></path>
                <path d="M40.921,430.335 C40.563,429.62 40.473,428.902 40.563,428.096 C40.742,426.843 41.548,425.768 42.623,425.231 L43.965,428.543 L40.921,430.335" id="Fill-25"></path>
                <path d="M44.427,431.714 C44.275,431.714 44.121,431.702 43.965,431.677 C42.98,431.588 42.174,431.052 41.727,430.246 L44.324,428.634 L43.159,425.768 C43.553,425.637 43.946,425.554 44.339,425.554 C44.483,425.554 44.627,425.565 44.771,425.589 C46.472,425.768 47.726,427.469 47.457,429.08 C47.213,430.545 45.935,431.714 44.427,431.714" id="Fill-26"></path>
                <path d="M7.398,432.888 C7.338,432.769 7.219,432.588 7.159,432.469 C5.006,428.702 6.262,423.918 10.029,421.766 C11.25,421.057 12.601,420.711 13.945,420.711 C14.641,420.711 15.335,420.804 16.009,420.988 L13.379,428.223 L7.398,432.888" id="Fill-27"></path>
                <path d="M14.015,434.872 C12.084,434.872 10.184,433.987 8.954,432.41 L13.976,428.523 L16.129,422.484 C17.505,422.962 18.7,423.918 19.478,425.293 C21.271,428.343 20.195,432.29 17.145,434.025 C16.164,434.6 15.085,434.872 14.015,434.872" id="Fill-28"></path>
                <polygon id="Fill-29" points="29.659 452.583 33.691 452.583 33.691 446.536 29.659 446.536"></polygon>
                <polygon id="Fill-30" points="35.42 452.583 39.451 452.583 39.451 439.625 35.42 439.625"></polygon>
                <polygon id="Fill-31" points="41.18 452.44 45.211 452.44 45.211 443.369 41.18 443.369"></polygon>
                <path d="M7.629,452.01 C7.197,452.01 6.765,451.577 6.765,451.145 C6.765,450.713 7.197,450.28 7.629,450.28 L9.357,446.825 L12.748,447.532 C12.918,447.336 13.16,447.207 13.438,447.207 L13.678,447.254 L16.701,443.224 L18.058,443.904 C18.163,443.861 18.277,443.834 18.399,443.834 C18.583,443.834 18.745,443.903 18.89,443.995 C19.693,443.213 22.058,440.677 22.804,439.876 C22.755,439.763 22.726,439.637 22.726,439.506 C22.726,438.997 23.139,438.583 23.65,438.583 C24.159,438.583 24.574,438.997 24.573,439.506 C24.573,440.017 24.159,440.431 23.649,440.431 C23.528,440.431 23.413,440.405 23.307,440.362 L19.292,444.519 L19.292,444.604 L19.323,444.757 C19.323,445.268 18.909,445.682 18.398,445.682 C17.891,445.682 17.48,445.272 17.476,444.765 L16.699,444.377 L14.226,447.678 C14.305,447.813 14.362,447.961 14.362,448.13 C14.362,448.641 13.948,449.055 13.438,449.055 C12.998,449.055 12.649,448.743 12.555,448.331 L12.524,448.266 L9.645,447.69 L8.205,450.571 C8.348,450.714 8.493,450.858 8.493,451.145 C8.493,451.578 8.061,452.01 7.629,452.01" id="Fill-32"></path>
            </g>
        </g>
    </g>
</svg>