<?xml version="1.0" encoding="UTF-8" standalone="no"?>
<!-- Generator: Adobe Illustrator 19.2.1, SVG Export Plug-In . SVG Version: 6.00 Build 0)  -->

<svg
   xmlns:dc="http://purl.org/dc/elements/1.1/"
   xmlns:cc="http://creativecommons.org/ns#"
   xmlns:rdf="http://www.w3.org/1999/02/22-rdf-syntax-ns#"
   xmlns:svg="http://www.w3.org/2000/svg"
   xmlns="http://www.w3.org/2000/svg"
   xmlns:sodipodi="http://sodipodi.sourceforge.net/DTD/sodipodi-0.dtd"
   xmlns:inkscape="http://www.inkscape.org/namespaces/inkscape"
   version="1.1"
   id="Layer_1"
   x="0px"
   y="0px"
   viewBox="0 0 1506.2 696.9"
   style="enable-background:new 0 0 1506.2 696.9;"
   xml:space="preserve"
   inkscape:version="0.91 r13725"
   sodipodi:docname="mudamos-logo.svg"
   inkscape:export-filename="/home/erick/projects/tagview/mudamos-web/app/assets/images/mudamos-logo.svg"
   inkscape:export-xdpi="300"
   inkscape:export-ydpi="300"><metadata
     id="metadata4524"><rdf:RDF><cc:Work
         rdf:about=""><dc:format>image/svg+xml</dc:format><dc:type
           rdf:resource="http://purl.org/dc/dcmitype/StillImage" /><dc:title></dc:title></cc:Work></rdf:RDF></metadata><defs
     id="defs4522" /><sodipodi:namedview
     pagecolor="#ffffff"
     bordercolor="#666666"
     borderopacity="1"
     objecttolerance="10"
     gridtolerance="10"
     guidetolerance="10"
     inkscape:pageopacity="0"
     inkscape:pageshadow="2"
     inkscape:window-width="1362"
     inkscape:window-height="717"
     id="namedview4520"
     showgrid="false"
     inkscape:zoom="0.36242627"
     inkscape:cx="353.05225"
     inkscape:cy="456.68323"
     inkscape:window-x="0"
     inkscape:window-y="1104"
     inkscape:window-maximized="0"
     inkscape:current-layer="Layer_1" /><g
     id="g4506"
     style="fill:#000000;fill-opacity:1"><path
       d="M1201.9,345.7c7.4,4.2,17.1,7.1,29,8.9c4.1,0.6,9.1,0.9,14.9,0.9c12.4,0,18.6-4.4,18.6-13.1c0-4.5-2.4-8.5-7.1-12   c-2.8-2-8.9-5.2-18.2-9.6c-9.3-4.4-16.2-8.1-20.7-11.1c-4.5-3-8.4-6.4-11.7-10.3c-7.2-8.4-10.8-18.3-10.8-29.8   c0-13.7,5.2-24.3,15.5-31.8c9.7-7,23.2-10.6,40.3-10.6c19,0,33.7,3,44.1,9l-6.1,29.3c-5.4-4.2-13.6-7.2-24.4-9.1   c-3.4-0.5-7.9-0.8-13.3-0.8c-5.5,0-9.9,1.2-13.4,3.6c-3.5,2.4-5.2,5.1-5.2,8.3c0,3.1,0.5,5.7,1.5,7.5c1,1.9,2.7,3.7,4.9,5.4   c3.8,3.1,9.9,6.4,18.2,10.1c8.3,3.7,15.1,7.1,20.4,10.2c5.3,3.1,9.8,6.5,13.5,10.3c7.6,7.7,11.4,17.2,11.4,28.7   c0,14.1-4.9,25.2-14.8,33.3c-10,8.3-24.1,12.5-42.3,12.5c-15.7,0-29.8-2.2-42.3-6.6c-3.3-1.1-5.7-2.1-7.2-3.1L1201.9,345.7z    M1089.1,353.2c4.1,2.5,8.9,3.8,14.4,3.8c21.5,0,32.3-17.3,32.3-51.8c0-23-5.7-38-17.1-45c-3.8-2.3-8.2-3.4-13.2-3.4   c-5,0-9.6,0.8-13.7,2.5c-4.2,1.7-7.8,4.5-10.9,8.4c-6.7,8.5-10.1,21.6-10.1,39.2C1070.8,330.3,1076.9,345.8,1089.1,353.2    M1100.9,385.7c-10.8,0-20.4-1.7-29-5.2c-27.6-11.1-41.5-36.1-41.5-74.8c0-13,2-24.5,5.9-34.7c3.9-10.2,9.2-18.4,15.8-24.7   c13.4-12.6,32.1-19,56.1-19c21,0,37.5,6.9,49.7,20.6c12.1,13.7,18.2,32.4,18.2,56.1c0,27.5-7,48.3-21,62.3   C1142.3,379.2,1124.2,385.7,1100.9,385.7 M839.5,227.3h52.8l19,81.5l7.1,37l5.7-37l16.9-81.5h51.3l20,158.2h-37.7l-7.2-83.2   l-2.4-45.1l-9.8,46l-21,82.3h-34.7l-22.8-82.3l-10.3-46l-2.7,45.1l-6.2,83.2h-36.2L839.5,227.3z M748.2,329l-14.5-49.1l-5.1-20.3   l-5.2,20.3L709.5,329H748.2z M707,227.3h44.7l54.9,158.2H765l-8.6-29.2h-54.6l-8.2,29.2h-41.1L707,227.3z M597.2,266.2   c-5.8-7.6-14.9-11.4-27.4-11.4c-5.8,0-11.5,0.5-17.3,1.3v99.8c3.7,1,9,1.5,15.8,1.5s12.5-1,17-3.1c4.5-2,8.3-5.2,11.4-9.4   c6.5-8.8,9.8-21.8,9.8-39C606.5,287.5,603.4,274.2,597.2,266.2 M601.5,380.1c-9.6,3.7-20.5,5.5-32.8,5.5h-41.8h-13.8V227.3h14.4   h42.9c38.7,0,62.8,14.5,72.2,43.4c3.1,9.4,4.6,20.3,4.6,32.9c0,12.6-1.8,24-5.4,34.3C634.8,358.6,621.3,372.7,601.5,380.1    M480.2,319c0,44.5-21.5,66.7-64.6,66.7c-34.3,0-55.1-13.2-62.6-39.7c-2.3-8.3-3.5-17.5-3.5-27.6l0.4-91h38.9l-0.3,86.2v6.7   c0,4,0.5,8.6,1.6,13.8c1.1,5.2,2.8,9.4,5,12.5c3.9,5.5,10.5,8.2,19.9,8.2c9.1,0,15.8-2.9,19.9-8.7c4.4-6.2,6.6-17.1,6.6-32.7v-86.2   h38.7V319z M154,227.3h52.8l19,81.5l7.1,37l5.6-37l16.9-81.5h51.3l20,158.2H289l-7.2-83.2l-2.4-45.1l-9.8,46l-21,82.3H214   l-22.8-82.3l-10.3-46l-2.7,45.1l-6.2,83.2h-36.2L154,227.3z M1421.4,269.2h-28.7v220.5H367.9L245,617.5V489.7H37.8V112.5h1175.9   V83.8H15c-4,0-6,2-6,6v422.7c0,3.9,2,6,6,6h201.4v170l163.7-170h1035.4c4,0,6-2.1,6-6V269.2z"
       id="path4508"
       style="fill:#000000;fill-opacity:1" /><g
       id="g4510"
       style="fill:#000000;fill-opacity:1"><g
         id="g4512"
         style="fill:#000000;fill-opacity:1"><path
           d="M1407.7,187.4c-9.1,0-16.5-7.4-16.5-16.5V25c0-9.1,7.4-16.5,16.5-16.5s16.5,7.4,16.5,16.5v145.9     C1424.3,180,1416.9,187.4,1407.7,187.4z"
           id="path4514"
           style="fill:#000000;fill-opacity:1" /></g><g
         id="g4516"
         style="fill:#000000;fill-opacity:1"><path
           d="M1480.7,114.4h-145.9c-9.1,0-16.5-7.4-16.5-16.5s7.4-16.5,16.5-16.5h145.9c9.1,0,16.5,7.4,16.5,16.5     S1489.8,114.4,1480.7,114.4z"
           id="path4518"
           style="fill:#000000;fill-opacity:1" /></g></g></g></svg>