<?xml version="1.0" encoding="utf-8"?>
<!-- Generator: Adobe Illustrator 17.0.0, SVG Export Plug-In . SVG Version: 6.00 Build 0)  -->
<!DOCTYPE svg PUBLIC "-//W3C//DTD SVG 1.1//EN" "http://www.w3.org/Graphics/SVG/1.1/DTD/svg11.dtd">
<svg version="1.1" id="Ebene_1" xmlns="http://www.w3.org/2000/svg" xmlns:xlink="http://www.w3.org/1999/xlink" x="0px" y="0px"
	 width="101.883px" height="44.477px" viewBox="0 0 101.883 44.477" enable-background="new 0 0 101.883 44.477"
	 xml:space="preserve">
<polygon fill="#FFFFFF" points="91.361,0 98.34,6.979 80.126,6.979 80.126,8.829 98.34,8.829 91.361,15.808 93.979,15.808 
	101.883,7.904 93.979,0 "/>
<g>
	<path fill="#FFFFFF" d="M73.611,25.118c0.093,0.06,0.242,0.123,0.446,0.191c0.773,0.272,1.647,0.408,2.62,0.408
		c1.126,0,1.999-0.258,2.62-0.775c0.612-0.504,0.918-1.192,0.918-2.066c0-0.71-0.236-1.302-0.708-1.777
		c-0.229-0.231-0.509-0.443-0.838-0.636c-0.329-0.193-0.751-0.404-1.265-0.633c-0.515-0.229-0.891-0.438-1.129-0.627
		c-0.14-0.109-0.242-0.221-0.306-0.337c-0.063-0.115-0.095-0.271-0.095-0.466c0-0.196,0.107-0.367,0.322-0.514
		c0.214-0.147,0.49-0.22,0.828-0.22s0.613,0.017,0.826,0.05c0.671,0.114,1.175,0.301,1.511,0.561l0.376-1.816
		c-0.646-0.37-1.558-0.555-2.735-0.555c-1.063,0-1.896,0.219-2.499,0.655c-0.642,0.467-0.963,1.124-0.963,1.972
		c0,0.71,0.224,1.325,0.67,1.846c0.208,0.239,0.45,0.451,0.727,0.636c0.276,0.185,0.703,0.414,1.281,0.687
		c0.578,0.272,0.954,0.47,1.128,0.592c0.294,0.214,0.44,0.462,0.44,0.743c0,0.542-0.385,0.813-1.154,0.813
		c-0.361,0-0.669-0.019-0.924-0.057c-0.74-0.109-1.339-0.293-1.798-0.552L73.611,25.118z M66.92,23.706
		c-0.757-0.46-1.135-1.418-1.135-2.875c0-1.092,0.208-1.902,0.625-2.43c0.191-0.242,0.416-0.415,0.676-0.518
		c0.259-0.102,0.542-0.153,0.851-0.153c0.308,0,0.581,0.071,0.819,0.213c0.705,0.431,1.058,1.36,1.058,2.788
		c0,2.138-0.667,3.208-2.002,3.208C67.472,23.939,67.175,23.861,66.92,23.706 M67.653,25.717c1.441,0,2.561-0.399,3.36-1.199
		c0.867-0.867,1.3-2.153,1.3-3.858c0-1.469-0.376-2.628-1.128-3.478c-0.753-0.851-1.779-1.276-3.079-1.276
		c-1.488,0-2.646,0.392-3.475,1.175c-0.408,0.391-0.734,0.901-0.978,1.531c-0.245,0.629-0.367,1.345-0.367,2.149
		c0,2.4,0.856,3.944,2.569,4.634C66.386,25.61,66.986,25.717,67.653,25.717 M50.335,25.711h2.244l0.383-5.157l0.166-2.793
		l0.637,2.849l1.415,5.101h2.149l1.3-5.101l0.606-2.849l0.147,2.793l0.446,5.157h2.333l-1.237-9.805h-3.181l-1.045,5.049
		l-0.351,2.295l-0.44-2.295l-1.179-5.049h-3.271L50.335,25.711z M43.397,22.205l0.861-3.041l0.325-1.256l0.318,1.256l0.899,3.041
		H43.397z M39.865,25.711h2.544l0.51-1.811h3.385l0.535,1.811h2.576l-3.404-9.805h-2.767L39.865,25.711z M36.439,18.316
		c0.387,0.497,0.58,1.32,0.58,2.467c0,1.067-0.202,1.872-0.605,2.416c-0.196,0.26-0.432,0.453-0.708,0.58
		c-0.276,0.128-0.627,0.192-1.052,0.192s-0.752-0.032-0.982-0.096v-6.184c0.357-0.055,0.714-0.083,1.071-0.083
		C35.513,17.608,36.078,17.844,36.439,18.316 M36.707,25.37c1.228-0.458,2.063-1.329,2.505-2.612
		c0.221-0.639,0.332-1.348,0.332-2.126s-0.096-1.457-0.287-2.038c-0.587-1.792-2.078-2.688-4.475-2.688h-2.659h-0.892v9.805h0.854
		h2.588C35.434,25.711,36.112,25.597,36.707,25.37 M29.19,15.906h-2.397v5.34c0,0.966-0.136,1.64-0.408,2.023
		c-0.255,0.357-0.665,0.536-1.231,0.536c-0.578,0-0.988-0.17-1.23-0.511c-0.14-0.195-0.244-0.454-0.312-0.775
		c-0.068-0.321-0.102-0.606-0.102-0.855v-0.418l0.019-5.34h-2.41l-0.025,5.639c0,0.626,0.072,1.195,0.216,1.71
		c0.459,1.642,1.751,2.462,3.876,2.462c2.669,0,4.004-1.378,4.004-4.133V15.906z M7.856,25.711H10.1l0.382-5.157l0.166-2.793
		l0.638,2.849l1.415,5.101h2.148l1.301-5.101l0.605-2.849l0.147,2.793l0.446,5.157h2.334l-1.237-9.805h-3.181l-1.046,5.049
		l-0.35,2.295l-0.44-2.295l-1.18-5.049h-3.27L7.856,25.711z"/>
	<path fill="#FFFFFF" d="M87.511,33.573c0,0.242-0.125,0.37-0.37,0.37H22.988L12.846,44.477V33.943H0.37
		c-0.245,0-0.37-0.128-0.37-0.37V7.385c0-0.243,0.125-0.37,0.37-0.37h74.265v1.779H1.779v23.37h12.843v7.914l7.612-7.914h63.498
		V18.503h1.779V33.573z"/>
</g>
</svg>
