<?xml version="1.0" encoding="UTF-8" standalone="no"?>
<svg width="200px" height="282px" viewBox="0 0 200 282" version="1.1" xmlns="http://www.w3.org/2000/svg" xmlns:xlink="http://www.w3.org/1999/xlink">
    <!-- Generator: Sketch 42 (36781) - http://www.bohemiancoding.com/sketch -->
    <title>phone</title>
    <desc>Created with Sketch.</desc>
    <defs></defs>
    <g id="Page-1" stroke="none" stroke-width="1" fill="none" fill-rule="evenodd">
        <g id="Artboard" transform="translate(-1897.000000, -1715.000000)" fill-rule="nonzero" fill="#EEEEEA">
            <g id="phone" transform="translate(1897.000000, 1715.000000)">
                <path d="M13.7721519,232.808861 L13.7721519,41.6822785 L185.518987,41.6822785 L185.518987,232.808861 L13.7721519,232.808861 Z M19.3797468,227.468354 L180.189873,227.468354 L180.189873,47.3037975 L19.3797468,47.3037975 L19.3797468,227.468354 Z" id="Fill-292"></path>
                <path d="M193.658228,250.770886 C193.658228,264.518987 182.43038,275.468354 168.962025,275.468354 L30.3291139,275.468354 C16.5696203,275.468354 5.63291139,264.240506 5.63291139,250.770886 L5.63291139,30.7329114 C5.63291139,16.9860759 16.8481013,6.03797468 30.3291139,6.03797468 L168.962025,6.03797468 C182.721519,6.03797468 193.658228,17.264557 193.658228,30.7329114 L193.658228,250.770886 Z M168.962025,0.430379747 L30.3291139,0.430379747 C13.7721519,0.430379747 0.0126582278,13.8974684 0.0126582278,30.7329114 L0.0126582278,250.770886 C0.0126582278,267.327848 13.4810127,281.074684 30.3291139,281.074684 L168.962025,281.074684 C185.518987,281.074684 199.278481,267.606329 199.278481,250.770886 L199.278481,30.7329114 C199.278481,13.8974684 185.797468,0.430379747 168.962025,0.430379747 L168.962025,0.430379747 Z" id="Fill-293"></path>
                <path d="M77.1898734,30.7329114 L122.101266,30.7329114 C124.898734,30.7329114 127.151899,28.4924051 127.151899,25.6835443 C127.151899,22.8860759 124.898734,20.6316456 122.101266,20.6316456 L77.1898734,20.6316456 C74.3797468,20.6316456 72.1392405,22.8860759 72.1392405,25.6835443 C72.1392405,28.4924051 74.3797468,30.7329114 77.1898734,30.7329114" id="Fill-294"></path>
                <path d="M99.6455696,243.746835 C105.379747,243.746835 110.025316,248.403797 110.025316,254.139241 C110.025316,259.872152 105.379747,264.518987 99.6455696,264.518987 C93.9113924,264.518987 89.2658228,259.872152 89.2658228,254.139241 C89.2658228,248.403797 93.9113924,243.746835 99.6455696,243.746835" id="Fill-295"></path>
            </g>
        </g>
    </g>
</svg>