<?xml version="1.0" encoding="UTF-8" standalone="no"?>
<svg width="97px" height="125px" viewBox="0 0 97 125" version="1.1" xmlns="http://www.w3.org/2000/svg" xmlns:xlink="http://www.w3.org/1999/xlink">
    <!-- Generator: Sketch 42 (36781) - http://www.bohemiancoding.com/sketch -->
    <title>puzzle-piece</title>
    <desc>Created with Sketch.</desc>
    <defs>
        <linearGradient x1="0%" y1="50%" x2="100%" y2="50%" id="linearGradient-1">
            <stop stop-color="#211147" stop-opacity="0.85" offset="0%"></stop>
            <stop stop-color="#513393" stop-opacity="0.85" offset="100%"></stop>
        </linearGradient>
    </defs>
    <g id="Page-1" stroke="none" stroke-width="1" fill="none" fill-rule="evenodd">
        <g id="Artboard" transform="translate(-953.000000, -913.000000)" fill-rule="nonzero" fill="url(#linearGradient-1)">
            <g id="puzzle" transform="translate(211.000000, 843.000000)">
                <path d="M838.445631,181.665266 L838.445631,98.2832655 L811.051631,98.2832655 C805.765631,98.2832655 804.001631,98.1032655 802.597631,96.9292655 C799.871631,94.6452655 804.285631,91.2912655 804.285631,84.3192655 C804.285631,76.6032655 798.035631,70.3472655 790.317631,70.3472655 C782.599631,70.3472655 776.349631,76.5992655 776.349631,84.3132655 C776.349631,91.2892655 780.759631,94.6412655 778.037631,96.9292655 C776.635631,98.1032655 774.869631,98.2832655 769.583631,98.2832655 L742.187631,98.2832655 L742.183631,121.599266 C742.183631,125.015266 742.511631,125.495266 743.175631,125.785266 C744.531631,126.369266 746.737631,125.171266 751.831631,125.171266 C762.561631,125.171266 771.121631,136.489266 771.121631,146.425266 C771.121631,156.347266 762.993631,167.661266 751.831631,167.661266 C746.741631,167.661266 744.531631,166.461266 743.175631,167.047266 C742.519631,167.333266 742.187631,167.819266 742.187631,171.237266 L742.187631,194.549266 L825.875631,194.549266 C825.875631,194.549266 832.937631,195.041266 835.933631,192.037266 C838.937631,189.041266 838.445631,181.665266 838.445631,181.665266 Z" id="puzzle-piece"></path>
            </g>
        </g>
    </g>
</svg>