<?xml version="1.0" encoding="UTF-8" standalone="no"?>
<svg width="241px" height="241px" viewBox="0 0 241 241" version="1.1" xmlns="http://www.w3.org/2000/svg" xmlns:xlink="http://www.w3.org/1999/xlink">
    <!-- Generator: Sketch 42 (36781) - http://www.bohemiancoding.com/sketch -->
    <title>puzzle</title>
    <desc>Created with Sketch.</desc>
    <defs>
        <linearGradient x1="0%" y1="50%" x2="100%" y2="50%" id="linearGradient-1">
            <stop stop-color="#3A2F51" offset="0%"></stop>
            <stop stop-color="#5C4888" offset="100%"></stop>
        </linearGradient>
    </defs>
    <g id="Page-1" stroke="none" stroke-width="1" fill="none" fill-rule="evenodd">
        <g id="Artboard" transform="translate(-2268.000000, -1742.000000)" fill-rule="nonzero" fill="url(#linearGradient-1)">
            <g id="puzzle" transform="translate(2389.000000, 1863.000000) rotate(-15.000000) translate(-2389.000000, -1863.000000) translate(2289.000000, 1763.000000)">
                <path d="M75.144,48.17 C75.144,55.886 81.398,62.142 89.11,62.142 C96.086,62.142 99.44,57.73 101.726,60.456 C102.898,61.856 103.078,63.622 103.078,68.91 L103.078,96.3 L126.394,96.304 C129.812,96.304 130.296,95.974 130.578,95.312 C131.168,93.958 129.964,91.748 129.964,86.656 C129.964,75.928 141.288,67.364 151.222,67.364 C161.144,67.364 172.456,75.494 172.456,86.656 C172.456,91.746 171.256,93.954 171.838,95.312 C172.128,95.97 172.612,96.304 176.03,96.304 L199.342,96.304 L199.342,11.42 C199.342,11.42 199.69,5.408 196.83,2.55 C193.974,-0.306 187.202,0.04 187.202,0.04 L103.082,0.04 L103.082,27.436 C103.082,32.726 102.898,34.488 101.73,35.89 C99.442,38.618 96.086,34.202 89.114,34.202 C81.402,34.202 75.144,40.456 75.144,48.17 Z" id="Shape"></path>
                <path d="M0.04,96.306 L27.436,96.306 C32.722,96.306 34.486,96.486 35.89,97.66 C38.618,99.948 34.202,103.3 34.202,110.272 C34.202,117.988 40.456,124.244 48.172,124.244 C55.888,124.244 62.142,117.988 62.142,110.278 C62.142,103.302 57.73,99.95 60.454,97.662 C61.856,96.492 63.62,96.308 68.908,96.308 L96.298,96.308 L96.304,72.994 C96.304,69.578 95.974,69.094 95.312,68.81 C93.958,68.224 91.748,69.422 86.654,69.422 C75.926,69.422 67.366,58.102 67.366,48.168 C67.366,38.246 75.492,26.932 86.654,26.932 C91.744,26.932 93.954,28.132 95.312,27.548 C95.968,27.26 96.302,26.776 96.302,23.358 L96.302,0.04 L13.62,0.04 C13.62,0.04 5.62,-0.518 2.552,2.55 C-0.518,5.62 0.04,12.496 0.04,12.496 L0.04,96.306 Z" id="Shape"></path>
                <path d="M124.242,151.844 C124.242,144.13 117.988,137.874 110.278,137.874 C103.302,137.874 99.946,142.286 97.66,139.562 C96.488,138.158 96.306,136.396 96.306,131.106 L96.306,103.712 L72.992,103.706 C69.574,103.706 69.094,104.038 68.806,104.7 C68.222,106.058 69.42,108.266 69.42,113.356 C69.42,124.084 58.098,132.644 48.166,132.644 C38.244,132.644 26.93,124.52 26.93,113.356 C26.93,108.266 28.132,106.058 27.546,104.7 C27.26,104.048 26.774,103.712 23.354,103.712 L0.04,103.712 L0.04,186.728 C0.04,186.728 -0.118,193.718 2.91,196.744 C5.938,199.772 12.836,199.97 12.836,199.97 L96.306,199.97 L96.306,172.576 C96.306,167.29 96.488,165.526 97.66,164.122 C99.948,161.398 103.302,165.812 110.274,165.812 C117.988,165.812 124.242,159.558 124.242,151.844 Z" id="Shape"></path>
                <path d="M199.348,187.086 L199.348,103.704 L171.954,103.704 C166.668,103.704 164.904,103.524 163.5,102.35 C160.774,100.066 165.188,96.712 165.188,89.74 C165.188,82.024 158.938,75.768 151.22,75.768 C143.502,75.768 137.252,82.02 137.252,89.734 C137.252,96.71 141.662,100.062 138.94,102.35 C137.538,103.524 135.772,103.704 130.486,103.704 L103.09,103.704 L103.086,127.02 C103.086,130.436 103.414,130.916 104.078,131.206 C105.434,131.79 107.64,130.592 112.734,130.592 C123.464,130.592 132.024,141.91 132.024,151.846 C132.024,161.768 123.896,173.082 112.734,173.082 C107.644,173.082 105.434,171.882 104.078,172.468 C103.422,172.754 103.09,173.24 103.09,176.658 L103.09,199.97 L186.778,199.97 C186.778,199.97 193.84,200.462 196.836,197.458 C199.84,194.462 199.348,187.086 199.348,187.086 Z" id="Shape"></path>
            </g>
        </g>
    </g>
</svg>